<svg width="114" height="62" viewBox="0 0 114 62" fill="none" xmlns="http://www.w3.org/2000/svg">
<g clip-path="url(#clip0)">
<path d="M6.156 48.544C7.584 48.544 8.802 48.838 9.81 49.426C10.818 50.014 11.322 50.638 11.322 51.298C11.322 51.478 11.28 51.634 11.196 51.766C11.124 51.886 11.028 51.976 10.908 52.036C10.8 52.084 10.68 52.108 10.548 52.108C10.332 52.108 10.008 52 9.576 51.784C9.144 51.556 8.664 51.334 8.136 51.118C7.608 50.89 7.122 50.776 6.678 50.776C5.97 50.776 5.616 51.064 5.616 51.64C5.616 51.82 5.67 51.994 5.778 52.162C5.898 52.318 6.084 52.486 6.336 52.666C6.588 52.834 6.834 52.984 7.074 53.116C7.314 53.248 7.644 53.428 8.064 53.656C8.484 53.872 8.838 54.064 9.126 54.232C10.05 54.76 10.698 55.264 11.07 55.744C11.442 56.224 11.628 56.776 11.628 57.4C11.628 59.884 9.954 61.126 6.606 61.126C5.946 61.126 5.304 61.06 4.68 60.928C4.068 60.796 3.528 60.622 3.06 60.406C2.604 60.19 2.196 59.95 1.836 59.686C1.488 59.422 1.224 59.152 1.044 58.876C0.864 58.6 0.774 58.342 0.774 58.102C0.774 57.838 0.858 57.616 1.026 57.436C1.206 57.244 1.464 57.148 1.8 57.148C2.052 57.148 2.658 57.31 3.618 57.634C4.578 57.946 5.352 58.102 5.94 58.102C6.48 58.102 6.75 57.916 6.75 57.544C6.75 57.436 6.726 57.34 6.678 57.256C6.642 57.16 6.57 57.07 6.462 56.986C6.366 56.89 6.252 56.806 6.12 56.734C6 56.65 5.826 56.548 5.598 56.428C5.382 56.308 5.16 56.188 4.932 56.068C4.716 55.948 4.428 55.792 4.068 55.6C3.708 55.408 3.36 55.216 3.024 55.024C2.58 54.772 2.196 54.46 1.872 54.088C1.56 53.716 1.332 53.35 1.188 52.99C1.044 52.618 0.972 52.276 0.972 51.964C0.972 50.956 1.422 50.134 2.322 49.498C3.222 48.862 4.5 48.544 6.156 48.544ZM24 56.248C24 55.576 23.73 55.24 23.19 55.24C22.95 55.24 22.77 55.378 22.65 55.654C22.53 55.93 22.47 56.278 22.47 56.698C22.47 57.334 22.458 57.862 22.434 58.282C22.422 58.702 22.386 59.08 22.326 59.416C22.266 59.752 22.194 60.016 22.11 60.208C22.026 60.4 21.912 60.562 21.768 60.694C21.624 60.814 21.462 60.898 21.282 60.946C21.102 60.982 20.874 61 20.598 61C20.178 61 19.836 60.94 19.572 60.82C19.32 60.7 19.14 60.532 19.032 60.316C18.924 60.1 18.87 59.83 18.87 59.506V56.248C18.87 55.576 18.6 55.24 18.06 55.24C17.844 55.24 17.664 55.366 17.52 55.618C17.388 55.858 17.322 56.176 17.322 56.572V59.074C17.322 59.794 17.172 60.298 16.872 60.586C16.572 60.862 16.044 61 15.288 61C14.58 61 14.094 60.838 13.83 60.514C13.578 60.178 13.452 59.632 13.452 58.876V54.448C13.452 53.836 13.614 53.344 13.938 52.972C14.274 52.6 14.718 52.414 15.27 52.414C16.254 52.414 16.878 52.732 17.142 53.368C17.598 53.032 18.042 52.798 18.474 52.666C18.918 52.534 19.434 52.468 20.022 52.468C20.91 52.468 21.552 52.852 21.948 53.62C22.008 53.572 22.068 53.524 22.128 53.476C23.052 52.804 24.186 52.468 25.53 52.468C26.382 52.468 26.994 52.792 27.366 53.44C27.738 54.088 27.924 55.174 27.924 56.698C27.924 57.334 27.912 57.862 27.888 58.282C27.876 58.702 27.84 59.08 27.78 59.416C27.72 59.752 27.642 60.016 27.546 60.208C27.462 60.4 27.336 60.562 27.168 60.694C27.012 60.814 26.832 60.898 26.628 60.946C26.436 60.982 26.19 61 25.89 61C25.434 61 25.062 60.94 24.774 60.82C24.498 60.7 24.3 60.532 24.18 60.316C24.06 60.1 24 59.83 24 59.506V56.248ZM29.567 49.912C29.567 49.516 29.735 49.192 30.071 48.94C30.419 48.676 30.905 48.544 31.529 48.544C32.837 48.544 33.491 49 33.491 49.912C33.491 50.416 33.323 50.77 32.987 50.974C32.663 51.178 32.177 51.28 31.529 51.28C30.965 51.28 30.497 51.172 30.125 50.956C29.753 50.74 29.567 50.392 29.567 49.912ZM33.473 59.074C33.473 59.794 33.323 60.298 33.023 60.586C32.723 60.862 32.195 61 31.439 61C30.731 61 30.245 60.838 29.981 60.514C29.729 60.178 29.603 59.632 29.603 58.876V54.448C29.603 53.836 29.765 53.344 30.089 52.972C30.425 52.6 30.869 52.414 31.421 52.414C32.069 52.414 32.573 52.558 32.933 52.846C33.293 53.122 33.473 53.638 33.473 54.394V59.074ZM39.0653 58.282C39.0653 59.254 38.9033 59.95 38.5793 60.37C38.2553 60.79 37.7573 61 37.0853 61C36.4133 61 35.9213 60.814 35.6093 60.442C35.2973 60.058 35.1413 59.386 35.1413 58.426L35.1053 50.83C35.1053 50.518 35.1353 50.242 35.1953 50.002C35.2673 49.762 35.3573 49.558 35.4653 49.39C35.5853 49.222 35.7293 49.084 35.8973 48.976C36.0653 48.868 36.2453 48.79 36.4373 48.742C36.6413 48.694 36.8573 48.67 37.0853 48.67C37.7453 48.67 38.2373 48.802 38.5613 49.066C38.8973 49.33 39.0653 49.864 39.0653 50.668V58.282ZM45.6628 61.108C44.1988 61.108 42.9868 60.73 42.0268 59.974C41.0788 59.218 40.6048 58.186 40.6048 56.878C40.6048 55.462 41.0728 54.346 42.0088 53.53C42.9568 52.702 44.1748 52.288 45.6628 52.288C47.0668 52.288 48.0928 52.54 48.7408 53.044C49.4008 53.536 49.7308 54.214 49.7308 55.078C49.7308 55.246 49.7068 55.408 49.6588 55.564C49.6228 55.72 49.5568 55.876 49.4608 56.032C49.3768 56.176 49.2568 56.314 49.1008 56.446C48.9568 56.566 48.7888 56.68 48.5968 56.788C48.4048 56.884 48.1768 56.962 47.9128 57.022C47.6488 57.07 47.3668 57.094 47.0668 57.094L44.5288 57.112C44.6488 57.496 44.8648 57.802 45.1768 58.03C45.4888 58.246 45.8848 58.354 46.3648 58.354C46.8808 58.354 47.4088 58.288 47.9488 58.156C48.1768 58.096 48.4228 58 48.6868 57.868C48.9628 57.736 49.1608 57.67 49.2808 57.67C49.4848 57.67 49.6408 57.73 49.7488 57.85C49.8688 57.97 49.9288 58.12 49.9288 58.3C49.9288 58.516 49.8328 58.78 49.6408 59.092C49.4488 59.392 49.1788 59.698 48.8308 60.01C48.4948 60.31 48.0448 60.568 47.4808 60.784C46.9168 61 46.3108 61.108 45.6628 61.108ZM44.4388 55.96C45.2668 55.948 45.7168 55.942 45.7888 55.942C45.9688 55.942 46.1008 55.834 46.1848 55.618C46.2448 55.462 46.2748 55.246 46.2748 54.97C46.2748 54.214 46.0468 53.836 45.5908 53.836C45.4228 53.836 45.2548 53.926 45.0868 54.106C44.9308 54.286 44.7928 54.544 44.6728 54.88C44.5528 55.204 44.4748 55.564 44.4388 55.96ZM56.7458 48.544C58.1738 48.544 59.3918 48.838 60.3998 49.426C61.4078 50.014 61.9118 50.638 61.9118 51.298C61.9118 51.478 61.8698 51.634 61.7858 51.766C61.7138 51.886 61.6178 51.976 61.4978 52.036C61.3898 52.084 61.2698 52.108 61.1378 52.108C60.9218 52.108 60.5978 52 60.1658 51.784C59.7338 51.556 59.2538 51.334 58.7258 51.118C58.1978 50.89 57.7118 50.776 57.2678 50.776C56.5598 50.776 56.2058 51.064 56.2058 51.64C56.2058 51.82 56.2598 51.994 56.3678 52.162C56.4878 52.318 56.6738 52.486 56.9258 52.666C57.1778 52.834 57.4238 52.984 57.6638 53.116C57.9038 53.248 58.2338 53.428 58.6538 53.656C59.0738 53.872 59.4278 54.064 59.7158 54.232C60.6398 54.76 61.2878 55.264 61.6598 55.744C62.0318 56.224 62.2178 56.776 62.2178 57.4C62.2178 59.884 60.5438 61.126 57.1958 61.126C56.5358 61.126 55.8938 61.06 55.2698 60.928C54.6578 60.796 54.1178 60.622 53.6498 60.406C53.1938 60.19 52.7858 59.95 52.4258 59.686C52.0778 59.422 51.8138 59.152 51.6338 58.876C51.4538 58.6 51.3638 58.342 51.3638 58.102C51.3638 57.838 51.4478 57.616 51.6158 57.436C51.7958 57.244 52.0538 57.148 52.3898 57.148C52.6418 57.148 53.2478 57.31 54.2078 57.634C55.1678 57.946 55.9418 58.102 56.5298 58.102C57.0698 58.102 57.3398 57.916 57.3398 57.544C57.3398 57.436 57.3158 57.34 57.2678 57.256C57.2318 57.16 57.1598 57.07 57.0518 56.986C56.9558 56.89 56.8418 56.806 56.7098 56.734C56.5898 56.65 56.4158 56.548 56.1878 56.428C55.9718 56.308 55.7498 56.188 55.5218 56.068C55.3058 55.948 55.0178 55.792 54.6578 55.6C54.2978 55.408 53.9498 55.216 53.6138 55.024C53.1698 54.772 52.7858 54.46 52.4618 54.088C52.1498 53.716 51.9218 53.35 51.7778 52.99C51.6338 52.618 51.5618 52.276 51.5618 51.964C51.5618 50.956 52.0118 50.134 52.9118 49.498C53.8118 48.862 55.0898 48.544 56.7458 48.544ZM69.0681 54.268C69.0681 53.992 68.9121 53.854 68.6001 53.854C68.3721 53.854 68.1681 53.98 67.9881 54.232C67.8081 54.484 67.6701 54.802 67.5741 55.186C67.4781 55.558 67.4301 55.948 67.4301 56.356C67.4301 56.956 67.6101 57.442 67.9701 57.814C68.3421 58.186 68.8401 58.372 69.4641 58.372C70.0761 58.372 70.6041 58.3 71.0481 58.156C71.2281 58.108 71.4441 58.018 71.6961 57.886C71.9601 57.754 72.1461 57.688 72.2541 57.688C72.4221 57.688 72.5601 57.718 72.6681 57.778C72.7761 57.838 72.8481 57.91 72.8841 57.994C72.9321 58.078 72.9561 58.168 72.9561 58.264C72.9561 58.432 72.8961 58.636 72.7761 58.876C72.6681 59.116 72.4941 59.368 72.2541 59.632C72.0141 59.896 71.7321 60.142 71.4081 60.37C71.0961 60.586 70.7061 60.766 70.2381 60.91C69.7701 61.054 69.2781 61.126 68.7621 61.126C67.2741 61.126 66.0501 60.73 65.0901 59.938C64.1301 59.134 63.6501 58.036 63.6501 56.644C63.6501 55.756 63.8661 54.982 64.2981 54.322C64.7421 53.65 65.3481 53.146 66.1161 52.81C66.8841 52.462 67.7661 52.288 68.7621 52.288C69.7101 52.288 70.4901 52.402 71.1021 52.63C71.7261 52.846 72.1701 53.14 72.4341 53.512C72.6981 53.884 72.8301 54.328 72.8301 54.844C72.8301 55.072 72.7821 55.306 72.6861 55.546C72.6021 55.786 72.4641 56.026 72.2721 56.266C72.0921 56.506 71.8221 56.704 71.4621 56.86C71.1021 57.004 70.6821 57.076 70.2021 57.076C69.9861 57.076 69.8061 57.064 69.6621 57.04C69.5301 57.016 69.3861 56.968 69.2301 56.896C69.0861 56.812 68.9781 56.68 68.9061 56.5C68.8341 56.32 68.7981 56.092 68.7981 55.816C68.7981 55.576 68.8401 55.288 68.9241 54.952C69.0201 54.604 69.0681 54.376 69.0681 54.268ZM80.1495 56.176C80.1495 55.492 79.8855 55.15 79.3575 55.15C79.2615 55.15 79.1715 55.162 79.0875 55.186C79.0155 55.21 78.9435 55.24 78.8715 55.276C78.8115 55.312 78.7515 55.366 78.6915 55.438C78.6435 55.498 78.5955 55.57 78.5475 55.654C78.5115 55.726 78.4815 55.816 78.4575 55.924C78.4455 56.032 78.4395 56.152 78.4395 56.284V58.264C78.4395 59.248 78.2775 59.95 77.9535 60.37C77.6415 60.778 77.1615 60.982 76.5135 60.982C75.8415 60.982 75.3495 60.796 75.0375 60.424C74.7255 60.04 74.5695 59.368 74.5695 58.408L74.5335 50.74C74.5335 49.996 74.7135 49.45 75.0735 49.102C75.4335 48.754 75.9135 48.58 76.5135 48.58C77.1495 48.58 77.6295 48.712 77.9535 48.976C78.2775 49.24 78.4395 49.774 78.4395 50.578V53.188C79.3275 52.648 80.4075 52.378 81.6795 52.378C82.2555 52.378 82.7175 52.528 83.0655 52.828C83.4135 53.116 83.6715 53.578 83.8395 54.214C84.0075 54.85 84.0915 55.684 84.0915 56.716C84.0915 57.244 84.0795 57.7 84.0555 58.084C84.0435 58.468 84.0195 58.822 83.9835 59.146C83.9475 59.458 83.8935 59.716 83.8215 59.92C83.7495 60.124 83.6655 60.298 83.5695 60.442C83.4735 60.586 83.3475 60.7 83.1915 60.784C83.0475 60.856 82.8855 60.91 82.7055 60.946C82.5255 60.982 82.3095 61 82.0575 61C81.3855 61 80.8995 60.88 80.5995 60.64C80.3115 60.388 80.1675 60.01 80.1675 59.506L80.1495 56.176ZM91.5619 56.734C91.5619 56.11 91.4839 55.564 91.3279 55.096C91.1719 54.616 90.9439 54.376 90.6439 54.376C90.4399 54.376 90.2599 54.496 90.1039 54.736C89.9479 54.976 89.8339 55.27 89.7619 55.618C89.6899 55.966 89.6539 56.338 89.6539 56.734C89.6539 57.346 89.7379 57.886 89.9059 58.354C90.0739 58.81 90.3139 59.038 90.6259 59.038C90.9379 59.038 91.1719 58.81 91.3279 58.354C91.4839 57.898 91.5619 57.358 91.5619 56.734ZM90.6259 61.126C89.6899 61.126 88.8439 60.958 88.0879 60.622C87.3439 60.286 86.7439 59.782 86.2879 59.11C85.8439 58.438 85.6219 57.652 85.6219 56.752C85.6219 55.384 86.0899 54.298 87.0259 53.494C87.9619 52.69 89.1619 52.288 90.6259 52.288C92.0899 52.288 93.2839 52.69 94.2079 53.494C95.1319 54.298 95.5939 55.384 95.5939 56.752C95.5939 58.108 95.1199 59.176 94.1719 59.956C93.2359 60.736 92.0539 61.126 90.6259 61.126ZM102.917 56.734C102.917 56.11 102.839 55.564 102.683 55.096C102.527 54.616 102.299 54.376 101.999 54.376C101.795 54.376 101.615 54.496 101.459 54.736C101.303 54.976 101.189 55.27 101.117 55.618C101.045 55.966 101.009 56.338 101.009 56.734C101.009 57.346 101.093 57.886 101.261 58.354C101.429 58.81 101.669 59.038 101.981 59.038C102.293 59.038 102.527 58.81 102.683 58.354C102.839 57.898 102.917 57.358 102.917 56.734ZM101.981 61.126C101.045 61.126 100.199 60.958 99.4434 60.622C98.6994 60.286 98.0994 59.782 97.6434 59.11C97.1994 58.438 96.9774 57.652 96.9774 56.752C96.9774 55.384 97.4454 54.298 98.3814 53.494C99.3174 52.69 100.517 52.288 101.981 52.288C103.445 52.288 104.639 52.69 105.563 53.494C106.487 54.298 106.949 55.384 106.949 56.752C106.949 58.108 106.475 59.176 105.527 59.956C104.591 60.736 103.409 61.126 101.981 61.126ZM112.419 58.282C112.419 59.254 112.257 59.95 111.933 60.37C111.609 60.79 111.111 61 110.439 61C109.767 61 109.275 60.814 108.963 60.442C108.651 60.058 108.495 59.386 108.495 58.426L108.459 50.83C108.459 50.518 108.489 50.242 108.549 50.002C108.621 49.762 108.711 49.558 108.819 49.39C108.939 49.222 109.083 49.084 109.251 48.976C109.419 48.868 109.599 48.79 109.791 48.742C109.995 48.694 110.211 48.67 110.439 48.67C111.099 48.67 111.591 48.802 111.915 49.066C112.251 49.33 112.419 49.864 112.419 50.668V58.282Z" fill="white"/>
<path d="M46.9281 11.8712C49.0969 11.8712 50.8609 9.21359 50.8609 5.94679C50.8609 2.68079 49.0969 0.0231934 46.9281 0.0231934C44.7593 0.0231934 42.9949 2.68079 42.9949 5.94679C42.9949 9.21359 44.7597 11.8712 46.9281 11.8712Z" fill="white"/>
<path d="M65.6424 11.8712C67.8112 11.8712 69.5756 9.21359 69.5756 5.94679C69.5756 2.68079 67.8112 0.0231934 65.6424 0.0231934C63.474 0.0231934 61.71 2.68079 61.71 5.94679C61.71 9.21359 63.4744 11.8712 65.6424 11.8712Z" fill="white"/>
<path d="M73.7179 16.612C73.4687 16.3988 73.1253 16.3745 72.8617 16.5559C68.6311 19.4467 62.8916 21.4571 56.6998 22.2174C50.5095 22.9775 44.4538 22.4153 39.6492 20.6343C39.3494 20.5232 39.0211 20.6288 38.8324 20.8958C38.6426 21.1633 38.6333 21.5352 38.8089 21.8216C41.4149 26.0761 49.0299 28.3353 57.3263 27.3166C65.626 26.2976 72.4686 22.262 73.9657 17.5041C74.0661 17.1842 73.9663 16.8253 73.7179 16.612Z" fill="white"/>
</g>
<defs>
<clipPath id="clip0">
<rect width="114" height="62" fill="white"/>
</clipPath>
</defs>
</svg>
